<?xml version="1.0" standalone="no"?><!DOCTYPE svg PUBLIC "-//W3C//DTD SVG 1.1//EN" "http://www.w3.org/Graphics/SVG/1.1/DTD/svg11.dtd"><svg t="1564155885941" class="icon" viewBox="0 0 1024 1024" version="1.1" xmlns="http://www.w3.org/2000/svg" p-id="1982" width="64" height="64" xmlns:xlink="http://www.w3.org/1999/xlink"><defs><style type="text/css"></style></defs><path d="M170.302951 19.892459c39.617049-17.961967 86.452459 32.146885 62.782951 69.917377-15.611803 32.734426-65.552787 37.266885-85.864918 6.63082-22.074754-25.012459-6.714754-65.888525 23.081967-76.548197m0.587541 16.702951c-21.487213 10.575738-24.508852 43.478033-5.12 57.495082 20.983607 18.96918 59.005902 1.175082 57.411147-27.026885 1.342951-25.683934-30.636066-43.729836-52.291147-30.468197zM831.538361 125.14623c2.26623-14.772459-4.784262-36.091803 14.100983-42.051148 1.342951 13.765246 2.098361 27.698361 2.685902 41.547541 13.681311 0.923279 27.362623 1.930492 40.96 3.189508-1.846557 3.273443-5.539672 9.736393-7.38623 13.009836-11.247213-0.083934-22.410492-0.251803-33.657705-0.419672-0.419672 13.429508-0.923279 26.859016-1.510819 40.288525-20.396066-3.105574-12.758033-25.516066-15.276066-39.952787-11.918689-0.167869-23.837377-0.335738-35.756065-0.419672-0.419672-4.952131-0.75541-9.904262-1.091148-14.772459 12.254426-0.167869 24.592787-0.335738 36.931148-0.419672zM334.898361 161.238033c11.834754-4.952131 20.060328-14.520656 27.026885-24.928525a68.012066 68.012066 0 0 0 23.33377 24.005246l0.167869 4.784262c-10.659672 5.959344-18.297705 15.527869-24.173115 26.019673-5.623607-12.590164-14.772459-22.662295-26.355409-29.880656zM707.31541 168.708197c25.264262-19.304918 64.377705 12.170492 49.605246 40.624262-8.72918 23.921311-45.156721 27.530492-58.670164 6.127213-11.415082-14.520656-6.379016-37.434754 9.064918-46.751475m9.820328 12.002623c-18.885246 9.148852-7.050492 41.295738 13.261639 33.909508 27.362623-4.868197 9.904262-46.163934-13.261639-33.909508zM69.161967 254.992787c1.594754-12.758033 3.693115-25.432131 6.127213-38.10623 10.491803 10.24 10.407869 24.760656 12.254427 38.022295 12.925902 2.769836 30.384262-1.762623 36.763278 14.100984-12.50623 1.175082-25.096393 2.26623-37.602623 3.189508-0.75541 12.086557-1.594754 24.173115-2.434098 36.175738-17.62623-4.448525-11.918689-22.998033-14.940328-35.588197-13.681311-1.007213-28.201967-2.014426-38.358033-12.590164 12.674098-2.182295 25.432131-3.860984 38.190164-5.203934zM915.892459 269.513443c2.014426-7.050492 6.127213-21.151475 8.141639-28.201968 3.944918 9.316721 7.97377 18.717377 12.002623 28.034099 11.247213 1.007213 19.640656 6.211148 25.096394 15.611803-6.798689 0.587541-20.48 1.678689-27.278689 2.26623-0.587541 6.714754-1.678689 20.060328-2.266229 26.691147-9.652459-5.036066-14.940328-13.177705-15.947541-24.508852-9.48459-3.944918-18.885246-7.805902-28.285902-11.75082 7.134426-2.014426 21.403279-6.043279 28.537705-8.141639zM180.542951 331.708852c16.535082-13.09377 31.055738-34.413115 54.305574-33.909508 173.576393-0.923279 347.236721 0.335738 520.897049-0.587541 17.290492 0.75541 37.602623-2.601967 51.116065 10.99541 56.739672 49.940984 111.716721 101.980328 168.540328 152.005246 12.086557 12.086557 29.796721 23.669508 28.453771 43.058361 1.007213 134.546885-0.251803 269.261639 0.587541 403.808524 0.335738 24.005246-1.426885 51.032131-20.312131 68.322623-17.458361 18.96918-44.56918 21.151475-68.742296 20.731803-280.173115-0.671475-560.34623 0.167869-840.603278-0.419672-33.57377 0.75541-60.432787-27.11082-66.392131-58.838032V491.268197c52.71082-57.83082 115.745574-105.337705 172.149508-159.559345M61.44 479.685246c99.714098 0.503607 199.428197-0.75541 299.142295 0.503606 16.954754-1.594754 12.50623 21.655082 16.87082 31.811148 9.232787 69.749508 83.095082 120.445902 151.585574 108.107541 54.305574-8.477377 102.903607-53.214426 110.121967-108.611148 4.112787-9.988197-0.671475-31.139672 15.443934-30.887868 99.042623-2.182295 198.253115-0.167869 297.379672-0.923279-57.159344-50.108852-111.12918-104.246557-170.051147-152.005246-183.228852-2.518033-366.541639 0-549.854426-1.175082-57.159344 50.696393-113.815082 102.064262-170.638689 153.180328m-22.662295 24.592787c0.167869 139.666885-0.503607 279.417705 0.251803 419.08459-2.685902 25.012459 20.48 44.988852 44.737049 42.386885 277.067541 0.671475 554.219016-0.167869 831.370492 0.419672 16.199344-0.839344 35.756066 1.426885 48.010492-11.750819 12.674098-12.422295 9.904262-31.727213 10.827541-47.758689-0.335738-134.127213-0.083934-268.254426-0.167869-402.381639-102.316066-0.083934-204.548197 0.083934-306.864262-0.083935-7.134426 34.077377-20.144262 67.902951-45.240656 92.831476-50.528525 53.214426-138.827541 63.370492-199.763934 22.242623-40.876066-24.592787-64.881311-68.910164-72.351476-115.074099-103.659016 0.167869-207.234098 0-310.80918 0.083935z" fill="#999999" p-id="1983"></path><path d="M330.281967 720.912787c26.271475-41.631475 94.006557-7.470164 97.531803 34.245246 2.769836 13.345574-15.108197 17.878033-25.096393 16.283278-25.767869-2.937705-55.312787 2.769836-76.548197-15.527868 15.527869-14.268852 36.427541-14.184918 56.068197-15.947541-17.122623-6.966557-34.497049-13.009836-51.95541-19.053115zM590.059016 768.587541c-21.403279-46.163934 66.643934-94.845902 93.335082-47.339016-17.961967 5.87541-36.091803 11.331148-53.382295 19.220983 17.710164 5.203934 53.885902-4.448525 51.367869 24.257049-29.628852 5.203934-61.859672 11.331148-91.320656 3.860984zM457.778361 818.360656c15.108197-30.048525 58.670164-40.288525 84.186229-17.122623 16.87082 10.743607 18.549508 31.979016 22.662295 49.68918-32.146885 13.261639-22.578361-40.540328-52.878688-40.792131-27.698361-4.36459-38.358033 24.173115-43.561967 45.576393-20.228197-1.762623-19.388852-24.257049-10.407869-37.350819z" fill="#999999" p-id="1984"></path></svg>