<?xml version="1.0" standalone="no"?><!DOCTYPE svg PUBLIC "-//W3C//DTD SVG 1.1//EN" "http://www.w3.org/Graphics/SVG/1.1/DTD/svg11.dtd"><svg t="1563960159603" class="icon" viewBox="0 0 1024 1024" version="1.1" xmlns="http://www.w3.org/2000/svg" p-id="2594" width="16" height="16" xmlns:xlink="http://www.w3.org/1999/xlink"><defs><style type="text/css"></style></defs><path d="M259.438101 872.766651c-54.171978 0-96.305961 0-108.343956 66.209973-6.018998 60.190976 45.142982 66.209973 132.419946 81.257968 96.304961 3.009999 153.486939 15.046994 228.724909-51.16198l-252.800899-96.305961" fill="#707070" p-id="2595"></path><path d="M250.410105 872.766651c-30.095988 0-75.23997 0-93.296963 45.142981 3.009999 6.019998 15.047994 3.009999 21.066992-3.009998 12.037995-6.017998 6.019998 3.009999-6.018998 12.038995-12.037995 9.028996-42.133983 36.113986 9.028996 66.209973 54.170978 24.07599 225.71491 63.199975 331.049868-18.056992 0 0-210.668916-57.181977-261.829895-102.324959z" fill="#707070" p-id="2596"></path><path d="M798.145885 872.766651c54.171978 0 96.304961-3.009999 105.333958 63.199974 6.018998 60.190976-72.229971 69.219972-132.419947 81.257968-66.209973 6.019998-153.486939 15.047994-228.724908-51.16198l255.809897-93.295962" fill="#707070" p-id="2597"></path><path d="M804.164883 872.766651c30.094988 0 75.23797 0 93.295963 45.142981-3.009999 6.019998-15.047994 3.009999-21.066992-3.009998-12.037995-6.017998-6.019998 3.009999 6.018998 12.038995 15.047994 9.028996 45.142982 36.113986-6.019998 63.199975-54.169978 24.07699-225.71491 63.199975-331.048867-18.056993-3.009999 3.009999 207.658917-54.171978 258.819896-99.31496z" fill="#707070" p-id="2598"></path><path d="M873.383855 451.430819c57.181977 54.171978 90.286964 108.343957 120.381952 246.782901 3.009999 84.266966-9.028996 90.285964-36.113985 114.361955-18.057993-3.009999-39.124984-30.094988-60.190976-93.294963-21.066992-66.209973-24.07699-267.849893-24.076991-267.849893M903.479843 373.182851c0-15.046994-6.019998-30.094988-15.047994-42.132984C885.42185 147.467941 731.935912 0 542.334988 0S199.247125 147.467941 196.237126 328.039869c-9.027996 15.047994-15.046994 30.095988-15.046994 45.142982 0 21.066992 12.037995 42.133983 33.104987 60.190975C259.438101 565.793773 388.848049 662.099735 542.334988 662.099735c153.485939 0 282.896887-96.304961 328.039869-228.724909 21.066992-18.056993 33.104987-39.123984 33.104986-60.189975M151.094145 451.430819C93.913167 505.602798 57.798182 559.774776 30.713193 698.21372c-3.009999 84.266966 30.094988 111.352955 36.113985 114.361955 6.019998 3.009999 39.123984-30.094988 60.189976-93.294963 21.067992-66.209973 24.07699-267.849893 24.076991-267.849893" fill="#707070" p-id="2599"></path><path d="M933.574831 632.003747c0 198.62992-180.571928 361.144855-406.287837 361.144855S120.999157 830.633667 120.999157 632.003747 301.570084 270.858892 527.286994 270.858892s406.287837 162.514935 406.287837 361.144855" fill="#707070" p-id="2600"></path><path d="M873.383855 692.194723c0 150.47694-153.485939 270.857892-346.096861 270.857891S181.190132 842.671663 181.190132 692.194723s153.485939-270.859892 346.096862-270.859892 346.096861 120.382952 346.096861 270.859892" fill="#707070" p-id="2601"></path><path d="M193.228128 331.049867s-27.085989 21.065992-21.066992 63.199975c-27.085989 33.104987-24.07599 66.209973-12.037995 99.31496 21.066992 63.199975 165.524934 168.533933 352.115859 168.533933 252.801899-15.046994 325.02987-129.409948 382.211847-186.590925 0 0 33.104987-48.152981-21.066992-135.429946l-81.256967 9.028996-598.89976-18.056993z" fill="#707070" p-id="2602"></path><path d="M277.495094 571.812771c-3.009999 36.113986-18.056993 147.467941 3.009999 174.55293 24.07599 27.085989 51.16198 42.133983 108.342956 33.104987 27.085989-9.027996 33.104987-30.094988 30.094988-66.209974v-96.304961l-141.447943-45.142982z" fill="#707070" p-id="2603"></path><path d="M181.190132 361.144855s96.304961 150.47694 312.991875 159.505937c96.304961 3.009999 192.609923 9.027996 337.068865-90.285964 27.085989-27.085989 33.104987-36.114986 33.104987-36.114986s9.027996 69.219972-129.409948 156.495937c0 0 96.304961 0 165.523933-177.562928 0 0 33.104987 117.371953-84.266966 171.543931-108.342957 60.190976-177.562929 96.304961-358.134856 87.276965-117.372953-27.085989-294.935882-69.219972-306.973877-201.639919 0 0 6.019998-30.094988 18.056992-24.075991 0 0 0 72.229971 60.190976 96.305962 0-3.009999-60.189976-84.267966-48.151981-141.448944m108.342957 240.762904s-45.142982 141.448943 6.019998 165.524934c51.16098 21.066992 84.265966 15.047994 120.379951 6.019997 15.048994-15.047994 3.009999-114.362954 6.019998-126.400949-9.028996-3.009999-30.094988-9.029996-36.113985-9.029996 0 0-3.009999 42.134983 0 66.209973-6.019998-21.065992-12.038995-21.065992-12.038996-72.227971-39.123984-9.028996-84.266966-30.095988-84.266966-30.095988" fill="#707070" p-id="2604"></path><path d="M512.24 240.762904c0 51.16298-27.086989 90.286964-60.191976 90.286963s-60.189976-39.123984-60.189976-90.286963 27.084989-90.285964 60.189976-90.285964 60.190976 39.123984 60.190976 90.285964m180.572928 0c0 51.16298-27.085989 90.286964-60.190976 90.286963s-60.189976-39.123984-60.189976-90.286963 27.084989-90.285964 60.189976-90.285964 60.189976 39.123984 60.189976 90.285964" fill="#707070" p-id="2605"></path><path d="M482.144012 240.762904c0 18.057993-6.019998 30.095988-15.047994 30.095988s-15.047994-12.037995-15.047994-30.095988 6.019998-30.094988 15.047994-30.094988 15.047994 12.037995 15.047994 30.094988m90.285964 21.066991c-3.009999-24.07599 12.037995-57.180977 42.133983-48.152981 18.056993 6.019998 18.056993 39.124984 18.056993 48.152981 0 9.028996-12.037995 15.047994-18.056993 0-3.009999-12.037995-15.047994-54.171978-24.07699-3.009999-3.009999 12.038995-18.056993 12.038995-18.056993 3.009999" fill="#707070" p-id="2606"></path><path d="M692.811928 355.125858c-42.133983-15.047994-99.31496-24.07599-165.524934-24.075991-63.199975 0-120.381952 9.027996-162.514935 21.065992-33.104987 12.038995-63.199975 33.104987-63.199975 42.133983 3.008999 12.037995 15.046994 18.056993 75.23797 27.085989-21.066992-18.056993-18.056993-12.037995-18.056993-39.123984 0 27.085989 27.085989 39.123984 69.219973 54.171978 27.084989 9.027996 63.199975 15.046994 99.31396 15.046994 39.123984 0 75.23897-6.018998 102.323959-15.046994 39.123984-15.047994 60.190976-27.085989 60.190976-51.162979 0 24.07699 6.019998 18.057993-18.056993 39.123984 60.189976-9.027996 78.247969-18.056993 81.257968-30.094988 0-12.037995-30.095988-30.094988-60.190976-39.123984" fill="#707070" p-id="2607"></path></svg>